# xmcd CD database file
#
# Track frame offsets:
#	150
#	19559
#	36822
#	56915
#	72452
#	86248
#	99967
#	114480
#	131173
#	149238
#	168761
#	187127
#	202318
#	217646
#	232317
#
# Disc length: 3297 seconds
#
# Revision: 0
# Processed by: cddbd v1.5.1PL0 Copyright (c) Steve Scherf et al.
# Submitted via: CDex 1.51
#
DISCID=e90cdf0f
DTITLE=Nude - 10LETje
DYEAR=2004
DGENRE=New Age
TTITLE0=Dvignes Me
TTITLE1=Balon
TTITLE2=Razlog
TTITLE3=Rola
TTITLE4=Vesoljka
TTITLE5=Si'Z D Bes
TTITLE6=Narobe Svet
TTITLE7=Pepelka
TTITLE8=Nekje Vmes
TTITLE9=Pri Vodnjaku
TTITLE10=Polja Sanj
TTITLE11=Ni Cist Greh
TTITLE12=Budala
TTITLE13=Bic
TTITLE14=Povejmizakaj Pesem
EXTD=YEAR: 2004
EXTT0=
EXTT1=
EXTT2=
EXTT3=
EXTT4=
EXTT5=
EXTT6=
EXTT7=
EXTT8=
EXTT9=
EXTT10=
EXTT11=
EXTT12=
EXTT13=
EXTT14=
PLAYORDER=
